<svg width="20" height="20" viewBox="0 0 20 20" fill="none" xmlns="http://www.w3.org/2000/svg">
<g clip-path="url(#clip0_2_97)">
<path d="M9.99887 10.8321V16.6648C9.99887 17.1068 10.1744 17.5307 10.487 17.8432C10.7995 18.1557 11.2234 18.3313 11.6653 18.3313C12.1073 18.3313 12.5312 18.1557 12.8437 17.8432C13.1563 17.5307 13.3318 17.1068 13.3318 16.6648" stroke="#F54900" stroke-width="1.66648" stroke-linecap="round" stroke-linejoin="round"/>
<path d="M9.99887 1.66647V3.33295" stroke="#F54900" stroke-width="1.66648" stroke-linecap="round" stroke-linejoin="round"/>
<path d="M17.4914 10.8321C17.6209 10.8332 17.7488 10.8041 17.8651 10.7471C17.9814 10.69 18.0828 10.6067 18.1612 10.5037C18.2397 10.4006 18.293 10.2807 18.317 10.1535C18.3411 10.0262 18.3351 9.89512 18.2996 9.77058C17.827 7.92818 16.7549 6.29538 15.2521 5.12943C13.7493 3.96348 11.9013 3.33066 9.99928 3.33066C8.09724 3.33066 6.24926 3.96348 4.74648 5.12943C3.24371 6.29538 2.17157 7.92818 1.69897 9.77058C1.66366 9.89451 1.65758 10.0249 1.6812 10.1516C1.70483 10.2783 1.75751 10.3978 1.83511 10.5007C1.91272 10.6035 2.01312 10.687 2.12844 10.7445C2.24376 10.802 2.37085 10.832 2.49972 10.8321H17.4914Z" stroke="#F54900" stroke-width="1.66648" stroke-linecap="round" stroke-linejoin="round"/>
</g>
<defs>
<clipPath id="clip0_2_97">
<rect width="19.9977" height="19.9977" fill="white"/>
</clipPath>
</defs>
</svg>
