<svg width="16" height="16" viewBox="0 0 16 16" fill="none" xmlns="http://www.w3.org/2000/svg">
<g clip-path="url(#clip0_4_205)">
<path d="M7.99724 8.66367V13.3287C7.99724 13.6822 8.13767 14.0212 8.38763 14.2712C8.63759 14.5212 8.97661 14.6616 9.33011 14.6616C9.68361 14.6616 10.0226 14.5212 10.2726 14.2712C10.5226 14.0212 10.663 13.6822 10.663 13.3287" stroke="#0A0A0A" stroke-width="1.33287" stroke-linecap="round" stroke-linejoin="round"/>
<path d="M7.99724 1.33287V2.66574" stroke="#0A0A0A" stroke-width="1.33287" stroke-linecap="round" stroke-linejoin="round"/>
<path d="M13.9898 8.66367C14.0934 8.66453 14.1958 8.64123 14.2888 8.59563C14.3817 8.55003 14.4628 8.48338 14.5256 8.40097C14.5883 8.31856 14.631 8.22266 14.6502 8.12088C14.6694 8.0191 14.6647 7.91424 14.6363 7.81463C14.2583 6.34106 13.4008 5.03512 12.1988 4.10258C10.9969 3.17004 9.51885 2.66389 7.99757 2.66389C6.47629 2.66389 4.99824 3.17004 3.7963 4.10258C2.59436 5.03512 1.73685 6.34106 1.35886 7.81463C1.33062 7.91375 1.32576 8.01808 1.34465 8.1194C1.36355 8.22072 1.40568 8.31628 1.46775 8.39856C1.52982 8.48085 1.61013 8.54761 1.70236 8.59361C1.79459 8.63961 1.89624 8.66359 1.99931 8.66367H13.9898Z" stroke="#0A0A0A" stroke-width="1.33287" stroke-linecap="round" stroke-linejoin="round"/>
</g>
<defs>
<clipPath id="clip0_4_205">
<rect width="15.9945" height="15.9945" fill="white"/>
</clipPath>
</defs>
</svg>
